<?xml version="1.0" encoding="UTF-8"?>
<svg version="1.1" xmlns="http://www.w3.org/2000/svg" width="1024" height="1024">
<path d="M0 0 C337.92 0 675.84 0 1024 0 C1024 337.92 1024 675.84 1024 1024 C686.08 1024 348.16 1024 0 1024 C0 686.08 0 348.16 0 0 Z " fill="#FEFEFE" transform="translate(0,0)"/>
<path d="M0 0 C1.24444752 -0.00382555 2.48889503 -0.00765109 3.77105308 -0.01159257 C7.19060572 -0.02006645 10.60994101 -0.01971177 14.02948689 -0.01541197 C17.73105933 -0.01292979 21.43260727 -0.02197737 25.13417053 -0.02944946 C32.37298682 -0.04215778 39.61176594 -0.04399496 46.85059151 -0.0416492 C52.73928352 -0.03986135 58.6279643 -0.04162566 64.51665497 -0.04587364 C65.3568947 -0.04646883 66.19713443 -0.04706402 67.06283598 -0.04767724 C68.77017087 -0.04888908 70.47750576 -0.05010322 72.18484065 -0.05131962 C88.17417687 -0.0621805 104.16349197 -0.0600397 120.15282938 -0.05393478 C134.75240062 -0.04876829 149.35190509 -0.06001657 163.95146313 -0.07903299 C178.97205143 -0.09844655 193.99260819 -0.10666115 209.0132091 -0.10290974 C217.43415446 -0.10100285 225.85504302 -0.10343499 234.27597809 -0.11762428 C241.44586718 -0.12958409 248.61566451 -0.13089182 255.78555498 -0.11883412 C259.43721067 -0.11297719 263.08869891 -0.11175659 266.74034309 -0.12383652 C295.58141628 -0.2125813 317.57941433 2.48645666 339.08563232 23.26069641 C339.78817139 23.92585266 340.49071045 24.59100891 341.21453857 25.27632141 C345.58769589 29.76073321 348.57671173 34.59385295 351.39813232 40.13569641 C351.72378174 40.77128479 352.04943115 41.40687317 352.38494873 42.0617218 C358.59820312 54.90664786 358.55697449 67.36638188 358.59735107 81.35054016 C358.6145392 83.64485024 358.63289229 85.93915182 358.65229797 88.23344421 C358.7013994 94.5551312 358.73091671 100.87677424 358.7559967 107.19859695 C358.77317695 111.20861221 358.79507805 115.21858319 358.81915283 119.2285614 C358.93248214 138.25362368 359.00366021 157.2786852 359.06082571 176.30399138 C359.08036026 182.73500273 359.10266607 189.16600144 359.12597656 195.59700012 C359.21706897 220.89124225 359.28107136 246.18541177 359.31939489 271.47978872 C359.33068457 278.53339584 359.34894783 285.58696435 359.36990356 292.64054871 C359.39546272 301.34163904 359.40942312 310.04266491 359.4096716 318.74379396 C359.41003353 323.22735525 359.41499183 327.7107742 359.43319893 332.19430161 C359.56252777 365.77705547 357.02101552 395.6439461 342.08563232 426.26069641 C341.59321045 427.2751886 341.10078857 428.28968079 340.59344482 429.33491516 C323.79880979 461.83300837 292.278569 486.67551861 257.78485107 498.07710266 C255.99274084 498.62884253 254.197184 499.16952916 252.39813232 499.69819641 C251.60423096 499.93328918 250.81032959 500.16838196 249.99237061 500.41059875 C237.38204973 503.84514809 224.18122175 504.57749898 211.17596436 504.87739563 C210.09749973 504.90509273 210.09749973 504.90509273 208.99724793 504.93334937 C185.23058883 505.53607363 161.44819091 505.40676063 137.67593145 505.39502192 C133.5975231 505.39321809 129.51911671 505.39358891 125.44070816 505.39451218 C124.41372498 505.39474203 124.41372498 505.39474203 123.36599467 505.39497652 C121.97370465 505.39529635 120.58141462 505.39562057 119.1891246 505.39594911 C106.2543945 505.39877406 93.31967159 505.39556325 80.38494267 505.39014874 C69.3525518 505.38567329 58.32017145 505.38646857 47.28778076 505.3910675 C34.37240366 505.3964491 21.45703277 505.39851014 8.54165471 505.39545524 C7.15856942 505.39513679 5.77548413 505.39482242 4.39239883 505.39451218 C3.71244953 505.3943579 3.03250022 505.39420363 2.3319464 505.39404467 C-2.39761189 505.39319098 -7.12716613 505.39461706 -11.85672379 505.39699173 C-18.2445503 505.39991293 -24.63235722 505.39781802 -31.02018166 505.39209747 C-33.34146785 505.39079295 -35.66275573 505.39112382 -37.98404121 505.39336014 C-49.76280663 505.40364856 -61.5358169 505.30044072 -73.30960083 504.94010925 C-74.31235082 504.91813134 -75.31510081 504.89615343 -76.34823716 504.87350953 C-95.14407122 504.19196146 -111.22129394 495.80904617 -123.91436768 482.26069641 C-143.15922169 460.84944232 -146.5514373 434.9662027 -146.35274863 407.43949723 C-146.33107697 403.81958876 -146.3329137 400.19967457 -146.33155823 396.57971191 C-146.32518996 389.50004856 -146.29717564 382.42063188 -146.26149088 375.34106201 C-146.23296734 369.57805555 -146.21320656 363.81507734 -146.19946289 358.05201721 C-146.19749649 357.22818094 -146.19553009 356.40434467 -146.1935041 355.55554366 C-146.18954659 353.88064325 -146.18560823 352.2057428 -146.18168879 350.5308423 C-146.14161961 333.89024416 -146.07184163 317.24985457 -145.99124527 300.60940933 C-145.9338679 288.72841224 -145.88441105 276.84740983 -145.84096396 264.96635377 C-145.76889286 245.26480081 -145.68102234 225.56336923 -145.57848305 205.86195141 C-145.55187187 200.71202504 -145.52756961 195.56209396 -145.50504094 190.41214818 C-145.46926758 182.23566191 -145.42718929 174.05926309 -145.37207919 165.8828823 C-145.34698425 162.14467498 -145.32478783 158.40651653 -145.31093788 154.66824913 C-145.29570631 150.60243102 -145.26518819 146.53686659 -145.23321533 142.47114563 C-145.23105672 141.3002473 -145.22889811 140.12934896 -145.22667408 138.92296886 C-145.10537646 126.93361025 -142.82918273 115.92730486 -139.28936768 104.51069641 C-138.76258423 102.80889221 -138.76258423 102.80889221 -138.22515869 101.07270813 C-135.29708659 91.91082337 -131.6477649 83.61148664 -126.91436768 75.26069641 C-126.36264893 74.22429016 -125.81093018 73.18788391 -125.24249268 72.12007141 C-120.67040715 63.80323012 -114.94529686 56.54683968 -108.91436768 49.26069641 C-108.22214111 48.41249329 -107.52991455 47.56429016 -106.81671143 46.69038391 C-93.94936831 31.52435732 -75.90986943 20.35663804 -57.91436768 12.26069641 C-56.98890137 11.83748108 -56.98890137 11.83748108 -56.04473877 11.40571594 C-45.94104626 6.84925403 -35.76253224 4.28795077 -24.91436768 2.26069641 C-24.0502814 2.09165119 -23.18619513 1.92260598 -22.29592443 1.74843818 C-14.80412529 0.37315619 -7.6059203 -0.02519586 0 0 Z " fill="#029FD8" transform="translate(384.91436767578125,253.7393035888672)"/>
<path d="M0 0 C11.00386811 -0.547544 21.43545993 3.19810555 29.87109375 10.19140625 C35.86388778 16.04160312 39.79829927 22.10625839 43.24609375 29.69140625 C43.7373877 30.74183105 44.22868164 31.79225586 44.73486328 32.87451172 C50.7868167 45.94135486 56.50128035 59.16556665 62.25799561 72.36427307 C66.43613132 81.94238264 70.6759024 91.48908348 74.99609375 101.00390625 C80.08181588 112.21365307 85.12183014 123.44280679 90.12109375 134.69140625 C90.63169846 135.84008179 90.63169846 135.84008179 91.15261841 137.01196289 C95.66131376 147.1600702 100.14168243 157.31980611 104.51464844 167.52734375 C106.64579862 172.47685564 108.87707801 177.37259549 111.16796875 182.25 C115.0856562 190.59405275 118.82822908 199.01231597 122.55859375 207.44140625 C123.25513847 209.01227411 123.95183657 210.58307395 124.64868164 212.15380859 C126.04967811 215.31219589 127.44998009 218.47088942 128.84960938 221.62988281 C131.30479249 227.17088722 133.7634386 232.71035078 136.22387695 238.24902344 C137.25942285 240.58015833 138.29443919 242.91152856 139.32885742 245.24316406 C139.78494385 246.27022461 140.24103027 247.29728516 140.7109375 248.35546875 C141.10659912 249.2470166 141.50226074 250.13856445 141.90991211 251.05712891 C142.5362458 252.4478856 143.18896501 253.82714878 143.87109375 255.19140625 C143.87329359 254.1251492 143.87329359 254.1251492 143.87553787 253.03735161 C143.91260077 235.7355196 143.97160852 218.4339016 144.05499649 201.13223076 C144.0947941 192.76523393 144.12718289 184.39833125 144.14208984 176.03125 C144.15510266 168.73789808 144.18205771 161.44475327 144.22570682 154.15151799 C144.24833016 150.29029083 144.26400392 146.42931918 144.2629776 142.56801987 C144.26223148 138.93172717 144.28016189 135.29599948 144.31226158 131.65985298 C144.32480853 129.69295801 144.31769272 127.72596822 144.30995178 125.75904846 C144.43709291 114.99567499 144.43709291 114.99567499 148.87109375 110.19140625 C153.29271545 106.38571434 157.96391217 106.73954506 163.51953125 106.7578125 C164.45028473 106.75257065 165.38103821 106.7473288 166.33999634 106.7419281 C168.30510462 106.73551721 170.27025133 106.73683281 172.23535156 106.74536133 C175.22921768 106.75385835 178.22116657 106.72511796 181.21484375 106.69335938 C183.12890568 106.69174678 185.04297097 106.69232601 186.95703125 106.6953125 C187.84578949 106.68407852 188.73454773 106.67284454 189.65023804 106.66127014 C195.54170959 106.72673562 199.09259101 107.66323311 203.87109375 111.19140625 C206.52130729 114.87900645 206.16170823 118.99941395 206.15197754 123.35649109 C206.15791978 124.18660338 206.16386203 125.01671567 206.16998434 125.87198287 C206.18734841 128.65777865 206.19037393 131.44340243 206.19335938 134.22924805 C206.20261653 136.22506579 206.21266596 138.22087999 206.22344971 140.21669006 C206.24969614 145.64250294 206.26258754 151.06826632 206.27147102 156.49413276 C206.27733338 159.88462792 206.28554321 163.27510956 206.29447937 166.66559792 C206.32183025 177.27544393 206.34116249 187.88525904 206.34888315 198.49513787 C206.35784204 210.73918186 206.3929262 222.98277901 206.45088434 235.22668713 C206.49413573 244.69265681 206.51429268 254.15850086 206.51696539 263.62456828 C206.51906043 269.27726307 206.53085199 274.92953785 206.56660461 280.58212852 C206.59959697 285.90188075 206.60386302 291.22089801 206.5863266 296.54071617 C206.58478739 298.48976614 206.59345152 300.43885585 206.6132431 302.38780594 C206.78305123 320.15609426 206.78305123 320.15609426 201.50368977 326.66769886 C194.70266805 333.01511546 187.36861615 332.78153446 178.421875 332.72265625 C177.13226364 332.72648315 175.84265228 332.73031006 174.51396179 332.73425293 C171.79141933 332.74012417 169.0694045 332.73167032 166.34692383 332.71289062 C162.89531281 332.69021529 159.44495423 332.70316448 155.99339008 332.72718048 C152.65695814 332.74531613 149.32084224 332.73252058 145.984375 332.72265625 C144.76414139 332.73075317 143.54390778 332.7388501 142.28669739 332.74719238 C132.16884938 332.63856857 120.92291152 331.33367858 113.37109375 323.94140625 C112.61828125 323.235 111.86546875 322.52859375 111.08984375 321.80078125 C106.21066486 316.06259199 102.92233955 309.53597095 99.90234375 302.6796875 C99.54534393 301.88227646 99.18834412 301.08486542 98.82052612 300.26329041 C97.66517277 297.67926169 96.51809639 295.09165103 95.37109375 292.50390625 C94.56257548 290.69148017 93.75348732 288.87930822 92.94384766 287.06738281 C91.32717649 283.44741096 89.71350642 279.82612695 88.10253906 276.20361328 C86.19838845 271.92336641 84.28481077 267.64746964 82.36328125 263.375 C77.85287079 253.34368035 73.36111572 243.30436737 68.90234375 233.25 C68.56161835 232.48174393 68.22089294 231.71348785 67.86984253 230.92195129 C67.35588425 229.76308662 67.35588425 229.76308662 66.83154297 228.58081055 C66.13641173 227.01350091 65.441262 225.44619947 64.74609375 223.87890625 C64.4038678 223.10729156 64.06164185 222.33567688 63.70904541 221.54067993 C59.14228342 211.24860118 54.51629884 200.98727356 49.79882812 190.76318359 C46.54798764 183.70556529 43.38544148 176.61173441 40.24609375 169.50390625 C35.01797534 157.67276191 29.62715072 145.92084994 24.20568848 134.17739868 C19.07082426 123.05085809 14.02803566 111.89390681 9.18139648 100.63818359 C8.78251221 99.71730957 8.38362793 98.79643555 7.97265625 97.84765625 C7.63572754 97.06197266 7.29879883 96.27628906 6.95166016 95.46679688 C5.74815702 92.93253361 4.34794579 90.57502331 2.87109375 88.19140625 C-6.25982643 108.92353563 -15.37320766 129.66036217 -24.265625 150.49609375 C-27.40243058 157.84331072 -30.57542769 165.17464853 -33.75390625 172.50390625 C-34.24415283 173.63465576 -34.73439941 174.76540527 -35.23950195 175.93041992 C-40.19533897 187.35392044 -45.16389829 198.77188795 -50.12890625 210.19140625 C-24.38890625 210.19140625 1.35109375 210.19140625 27.87109375 210.19140625 C27.87109375 245.27379261 27.87109375 245.27379261 16.00390625 258.296875 C8.89914641 264.60787962 1.37509324 267.29247686 -7.9453125 267.36499023 C-8.62222137 267.37167725 -9.29913025 267.37836426 -9.99655151 267.38525391 C-11.46210965 267.3992698 -12.92768917 267.41117477 -14.39328003 267.42120171 C-16.71351946 267.43765683 -19.03359985 267.46089478 -21.35375977 267.48609924 C-27.94897504 267.55676204 -34.54425355 267.61704089 -41.13964844 267.66821289 C-45.17734847 267.70001498 -49.21486198 267.74128776 -53.25241089 267.78840828 C-54.78975065 267.804414 -56.32713329 267.81674219 -57.86453247 267.82531548 C-60.01404769 267.83747874 -62.16312448 267.86163049 -64.3125 267.88842773 C-65.53509521 267.8987352 -66.75769043 267.90904266 -68.01733398 267.91966248 C-70.99864087 268.18002975 -72.67807398 268.52096821 -75.12890625 270.19140625 C-76.68606592 272.70379975 -76.68606592 272.70379975 -77.94140625 275.78125 C-78.45380859 276.94591797 -78.96621094 278.11058594 -79.49414062 279.31054688 C-79.76057373 279.93292236 -80.02700684 280.55529785 -80.30151367 281.1965332 C-81.13632285 283.1462277 -81.98690321 285.08833315 -82.84179688 287.02929688 C-85.19479448 292.38367256 -87.50984 297.75433534 -89.82421875 303.12548828 C-90.90462249 305.6324073 -91.99053817 308.13680581 -93.08203125 310.63891602 C-94.09329932 312.96135316 -95.09377824 315.28852601 -96.08203125 317.62084961 C-101.11399987 329.18395306 -101.11399987 329.18395306 -107.12890625 332.19140625 C-110.19369882 332.32745662 -113.23456304 332.40422536 -116.30078125 332.4296875 C-117.2159552 332.43775925 -118.13112915 332.44583099 -119.07403564 332.45414734 C-121.01418155 332.46799254 -122.95435186 332.47871274 -124.89453125 332.48657227 C-127.85333873 332.50375775 -130.81102092 332.54763632 -133.76953125 332.59179688 C-135.6549397 332.60192626 -137.54035766 332.6104416 -139.42578125 332.6171875 C-140.30723816 332.63469559 -141.18869507 332.65220367 -142.09686279 332.67024231 C-147.6182759 332.65087302 -150.74977025 331.87255953 -155.12890625 328.19140625 C-159.10688237 323.78337866 -160.49503594 320.4784913 -160.40365601 314.4710083 C-159.88065169 310.13163513 -158.00866424 306.34828952 -156.2109375 302.40234375 C-155.80260681 301.47480789 -155.39427612 300.54727203 -154.97357178 299.59162903 C-153.64293432 296.57707128 -152.29220132 293.57197809 -150.94140625 290.56640625 C-150.00946696 288.4633191 -149.07905804 286.35955317 -148.15014648 284.25512695 C-146.31187204 280.09464399 -144.46686652 275.93726978 -142.61523438 271.78271484 C-139.59501266 265.000859 -136.6341043 258.1947252 -133.69140625 251.37890625 C-133.20679932 250.26128906 -132.72219238 249.14367187 -132.22290039 247.9921875 C-128.78754593 240.06168722 -125.38286598 232.11823709 -121.984375 224.171875 C-121.52507095 223.09836288 -121.06576691 222.02485077 -120.59254456 220.91880798 C-118.30071677 215.56180332 -116.01088687 210.20396238 -113.72485352 204.84448242 C-108.97833646 193.73273138 -104.13122194 182.67550666 -99.14794922 171.66796875 C-96.38521507 165.55956338 -93.71971445 159.41060738 -91.06640625 153.25390625 C-90.51780774 151.98431094 -89.96905523 150.71478216 -89.42016602 149.4453125 C-87.95660963 146.05955359 -86.49472587 142.67307515 -85.03320312 139.28643799 C-82.541551 133.51389755 -80.04675319 127.74271549 -77.55197144 121.9715271 C-76.89245212 120.4457186 -76.2330495 118.91985966 -75.57376099 117.39395142 C-71.44846403 107.84641335 -67.31047896 98.30451887 -63.15625 88.76953125 C-62.73330658 87.79835861 -62.31036316 86.82718597 -61.87460327 85.82658386 C-59.73191966 80.90668878 -57.58749906 75.98756278 -55.44042969 71.06958008 C-51.55487247 62.15761883 -47.70494311 53.23549934 -43.9921875 44.25 C-43.67411133 43.4840451 -43.35603516 42.71809021 -43.02832031 41.92892456 C-41.57028412 38.41774408 -40.12418211 34.90287711 -38.70458984 31.37597656 C-33.84986246 19.5208309 -27.29427098 9.74639869 -15.54296875 3.90625 C-10.36361155 1.73651928 -5.59059807 0.50264093 0 0 Z " fill="#FEFEFE" transform="translate(452.12890625,337.80859375)"/>
<path d="M0 0 C1.33590935 -0.01210762 1.33590935 -0.01210762 2.69880676 -0.02445984 C4.58767752 -0.03830585 6.47657336 -0.04902569 8.36547852 -0.05688477 C11.24088757 -0.07404778 14.11513186 -0.1179226 16.99023438 -0.16210938 C18.82681447 -0.17224083 20.66340434 -0.18075552 22.5 -0.1875 C23.35442184 -0.20500809 24.20884369 -0.22251617 25.0891571 -0.24055481 C32.52037827 -0.21384216 36.36161514 1.82769604 41.98022461 6.80639648 C45.24112297 11.08130331 44.77911484 15.98925372 44.7109375 21.1484375 C44.71334946 22.1934996 44.71576141 23.23856171 44.71824646 24.31529236 C44.7172695 26.51825771 44.70391215 28.72124807 44.67895508 30.92407227 C44.64460722 34.29332899 44.65831532 37.65996746 44.67773438 41.02929688 C44.67083671 43.17318823 44.66116506 45.31707283 44.6484375 47.4609375 C44.65339737 48.46625015 44.65835724 49.47156281 44.66346741 50.50733948 C44.59084212 54.82391413 44.50875211 57.50965232 42.29663086 61.28686523 C38.87343404 64.30324845 36.16185042 65.47034837 31.6081543 65.62060547 C30.73011642 65.65338593 29.85207855 65.68616638 28.94743347 65.71994019 C27.53486015 65.75608932 27.53486015 65.75608932 26.09375 65.79296875 C25.11718948 65.82182159 24.14062897 65.85067444 23.13447571 65.88040161 C21.06935878 65.93742109 19.00409156 65.98920352 16.9387207 66.03613281 C13.79076311 66.1127644 10.64497839 66.22165582 7.49804688 66.33203125 C5.4883312 66.38349949 3.47856509 66.43304138 1.46875 66.48046875 C0.53310715 66.51671356 -0.40253571 66.55295837 -1.36653137 66.59030151 C-7.43919303 66.68518954 -11.06454508 66.00792313 -15.91796875 62.23828125 C-19.44516565 57.33469414 -19.35747945 52.59453751 -19.31640625 46.78125 C-19.31927643 45.87885086 -19.32214661 44.97645172 -19.32510376 44.04670715 C-19.32713895 42.14302949 -19.32164729 40.23933065 -19.30908203 38.33569336 C-19.29307692 35.44531596 -19.30892013 32.55634877 -19.328125 29.66601562 C-19.32614137 27.8085907 -19.32229523 25.95116665 -19.31640625 24.09375 C-19.32247894 23.24032516 -19.32855164 22.38690033 -19.33480835 21.50761414 C-19.26828114 15.73303066 -18.43030405 10.49219332 -15.91796875 5.23828125 C-10.80644032 0.25142425 -6.89152621 0.05888341 0 0 Z " fill="#FDFEFE" transform="translate(614.91796875,340.76171875)"/>
<path d="M0 0 C0.33 0 0.66 0 1 0 C1.1800947 6.41635269 1.345002 12.83299198 1.5 19.25 C1.52400879 20.24276947 1.54801758 21.23553894 1.57275391 22.25839233 C1.88519176 35.63224678 2.04190469 49.00167975 2.03125 62.37890625 C2.03074142 63.06367161 2.03023285 63.74843697 2.02970886 64.45395279 C2.02311587 71.27582237 2.00487955 78.09758802 1.97194672 84.91938114 C1.96310497 86.85827055 1.95656057 88.79717001 1.95007324 90.73606873 C1.94185029 93.12871683 1.9294097 95.52135512 1.91223145 97.91395569 C1.90896851 98.96820236 1.90570557 100.02244904 1.90234375 101.10864258 C1.89710693 102.0335701 1.89187012 102.95849762 1.88647461 103.91145325 C1.76629204 105.98885388 1.76629204 105.98885388 3 107 C3 108.66666667 3 110.33333333 3 112 C3.33 112.66 3.66 113.32 4 114 C4.039992 115.99960012 4.04346799 118.00047242 4 120 C4.66 120.33 5.32 120.66 6 121 C6 121.99 6 122.98 6 124 C6.60578253 126.01927511 7.29094062 128.01463373 8 130 C8.268125 130.81984375 8.53625 131.6396875 8.8125 132.484375 C12.97904891 144.77569429 20.80629565 159.90314782 33 166 C33 166.66 33 167.32 33 168 C34.32 168 35.64 168 37 168 C37 168.99 37 169.98 37 171 C37.7425 171.28875 38.485 171.5775 39.25 171.875 C42 173 42 173 43.9375 174.0625 C46.57505571 175.26138896 49.14204094 175.61027831 52 176 C52 176.33 52 176.66 52 177 C53.65 177.33 55.3 177.66 57 178 C57.33 177.34 57.66 176.68 58 176 C58.33 176.99 58.66 177.98 59 179 C65.29789802 179.80294446 71.39835955 180.12509882 77.7421875 180.0625 C78.63237579 180.05871338 79.52256409 180.05492676 80.43972778 180.05102539 C83.25153723 180.03892136 86.06323838 180.02027713 88.875 180 C92.60155951 179.97342691 96.32806917 179.95345491 100.0546875 179.9375 C101.33434891 179.92505249 101.33434891 179.92505249 102.63986206 179.91235352 C106.01668784 179.89826211 108.77305095 179.92435032 112 181 C114.66106228 181.01686409 117.28993406 180.97329422 119.94744873 180.87986755 C121.63661725 180.83088125 123.32579225 180.78211812 125.01497269 180.73354435 C125.916645 180.70579524 126.81831731 180.67804613 127.74731302 180.64945614 C144.83642966 180.13394476 161.91618171 179.89878211 179.01269531 179.91821289 C180.03861896 179.91931875 181.06454261 179.92042461 182.12155485 179.92156398 C187.46913423 179.9287696 192.81668963 179.94066161 198.16425323 179.95540047 C205.01881908 179.97418767 211.87338042 179.98341481 218.72796631 179.99131775 C238.17918181 180.01512064 257.63036402 180.05159448 277.08154297 180.09594727 C287.91153911 180.12055905 298.74152342 180.1378738 309.57154346 180.14750665 C316.37065364 180.15399231 323.16966265 180.16941984 329.96873808 180.19182408 C334.19226017 180.20362197 338.41575843 180.20692509 342.63929558 180.20792198 C344.58100778 180.21005231 346.52272002 180.21558389 348.46441078 180.2249527 C366.16213878 181.03908223 366.16213878 181.03908223 383 177 C383.66 177.33 384.32 177.66 385 178 C385 178.66 385 179.32 385 180 C375.74262657 181.6548176 366.67036951 182.409388 357.27783203 182.61669922 C356.55136294 182.63516395 355.82489384 182.65362869 355.07641053 182.67265296 C331.25466659 183.2719744 307.41757414 183.14609138 283.59029913 183.1343255 C279.51189077 183.13252168 275.43348439 183.1328925 271.35507584 183.13381577 C270.32809266 183.13404561 270.32809266 183.13404561 269.28036235 183.13428011 C267.88807232 183.13459994 266.4957823 183.13492416 265.10349227 183.1352527 C252.16876218 183.13807765 239.23403926 183.13486684 226.29931034 183.12945233 C215.26691947 183.12497688 204.23453912 183.12577216 193.20214844 183.13037109 C180.28677134 183.13575269 167.37140045 183.13781373 154.45602238 183.13475883 C153.07293709 183.13444038 151.6898518 183.13412601 150.30676651 183.13381577 C149.62681721 183.13366149 148.9468679 183.13350721 148.24631407 183.13334826 C143.51675579 183.13249457 138.78720155 183.13392065 134.05764389 183.13629532 C127.66981737 183.13921651 121.28201045 183.13712161 114.89418602 183.13140106 C112.57289983 183.13009654 110.25161194 183.13042741 107.93032646 183.13266373 C96.15156105 183.14295214 84.37855077 183.03974431 72.60476685 182.67941284 C71.60201686 182.65743493 70.59926687 182.63545702 69.56613052 182.61281312 C50.77029645 181.93126504 34.69307374 173.54834976 22 160 C2.97319669 138.83134265 -0.63299787 113.17189713 -0.390625 85.9375 C-0.38314948 83.44930479 -0.37746276 80.96110363 -0.37347412 78.47290039 C-0.35832113 71.97590408 -0.31912975 65.4792748 -0.2746582 58.98242188 C-0.23348085 52.33207502 -0.21541547 45.68169105 -0.1953125 39.03125 C-0.15262441 26.02067824 -0.08528719 13.01035879 0 0 Z " fill="#0355CD" transform="translate(239,576)"/>
<path d="M0 0 C7.87413208 6.42786292 13.62447829 12.73217941 18.25 21.8125 C18.5792749 22.45171387 18.9085498 23.09092773 19.24780273 23.74951172 C25.5208306 36.60336744 25.47148456 49.07647759 25.51171875 63.08984375 C25.52877938 65.38525231 25.54699488 67.68065253 25.56625366 69.9760437 C25.61502351 76.29824917 25.64431728 82.62041578 25.66975784 88.94275284 C25.68752488 92.94310115 25.71071684 96.94339278 25.73654175 100.94369507 C26.26064042 182.62700867 26.09267816 264.31554652 26 346 C25.67 346 25.34 346 25 346 C24.26951724 296.27328718 23.81477291 246.54468504 23.45433426 196.81411552 C23.43749869 194.49981967 23.42048336 192.1855252 23.40341187 189.87123108 C23.17563763 158.95722434 22.94886345 128.04396373 23.0078125 97.12890625 C23.00944712 96.14291317 23.01108173 95.15692009 23.01276588 94.14104843 C23.02797837 85.27758493 23.05055851 76.41432941 23.10990143 67.5510416 C23.12878116 64.51226612 23.14030547 61.47349166 23.15024948 58.43467522 C23.15975071 56.43309064 23.18017219 54.4315669 23.20108032 52.43006897 C23.20441376 51.25826584 23.20774719 50.08646271 23.21118164 48.87915039 C23.21863907 47.87880264 23.2260965 46.8784549 23.23377991 45.84779358 C22.97045959 42.64015308 22.11976547 40.00807215 21 37 C20.76539063 36.27296875 20.53078125 35.5459375 20.2890625 34.796875 C19.55112368 32.52228711 18.77592525 30.26189531 18 28 C17.74734375 27.20335937 17.4946875 26.40671875 17.234375 25.5859375 C14.24560076 17.02717491 8.66828569 10.55509875 2.21484375 4.30078125 C0 2 0 2 0 0 Z " fill="#38BEDB" transform="translate(718,272)"/>
<path d="M0 0 C0.66 0 1.32 0 2 0 C-0.29170364 7.45210012 -3.30524954 14.5160913 -6.4637146 21.63366699 C-7.7249825 24.47628209 -8.97700032 27.32294504 -10.22984314 30.16928101 C-10.87786747 31.64118542 -11.52635843 33.11288448 -12.17530823 34.5843811 C-15.72936548 42.64429794 -19.23745782 50.72388047 -22.72290039 58.8137207 C-25.68633968 65.68884301 -28.68035714 72.54897499 -31.7151947 79.39294434 C-33.48471283 83.38928441 -35.2423216 87.39080952 -36.99868774 91.39294434 C-37.868415 93.36702782 -38.74332624 95.33883621 -39.62362671 97.30822754 C-40.86293476 100.08252557 -42.08359368 102.86437749 -43.30078125 105.6484375 C-43.67510284 106.4743338 -44.04942444 107.3002301 -44.43508911 108.15115356 C-47.15309421 114.44330912 -48.24655996 119.58836222 -45.8125 126.25 C-43.46100791 129.8177811 -40.81557843 132.09221079 -37 134 C-35.66856864 134.10380502 -34.33223902 134.14858373 -32.99682617 134.16113281 C-32.17224411 134.17074036 -31.34766205 134.1803479 -30.49809265 134.19024658 C-29.60540176 134.19449646 -28.71271088 134.19874634 -27.79296875 134.203125 C-26.87542313 134.20882507 -25.9578775 134.21452515 -25.01252747 134.22039795 C-23.06817785 134.22985433 -21.12381216 134.23638446 -19.17944336 134.24023438 C-16.20983746 134.24992709 -13.24092737 134.28093903 -10.27148438 134.3125 C-8.38281661 134.31903134 -6.4941439 134.32428129 -4.60546875 134.328125 C-3.71885056 134.3404718 -2.83223236 134.3528186 -1.91874695 134.36553955 C2.82768694 134.34846058 6.27427988 134.27512324 10 131 C11.68024873 128.41828082 11.68024873 128.41828082 12.9375 125.37109375 C13.69160156 123.69370117 13.69160156 123.69370117 14.4609375 121.98242188 C14.96882813 120.81259766 15.47671875 119.64277344 16 118.4375 C17.01938379 116.14388646 18.04019849 113.8509083 19.0625 111.55859375 C19.55105469 110.45499512 20.03960937 109.35139648 20.54296875 108.21435547 C22.5691257 103.74445226 24.75422737 99.36298472 27 95 C27.33 95.66 27.66 96.32 28 97 C27.15734069 99.45380017 26.25522118 101.80125246 25.25 104.1875 C24.98445313 104.83525391 24.71890625 105.48300781 24.4453125 106.15039062 C23.64086388 108.10488837 22.82177368 110.0527322 22 112 C21.51015625 113.17691406 21.0203125 114.35382813 20.515625 115.56640625 C18.97846765 119.04878077 17.29601739 122.3942833 15.5 125.75 C14.9121875 126.85859375 14.324375 127.9671875 13.71875 129.109375 C11.20772443 133.33246347 11.20772443 133.33246347 9 135 C8.01 135 7.02 135 6 135 C5.67 135.66 5.34 136.32 5 137 C-2.07409386 138.37811305 -9.19624578 138.22116966 -16.375 138.25 C-17.65117187 138.270625 -18.92734375 138.29125 -20.2421875 138.3125 C-29.23491163 138.34966002 -37.13314597 137.71052457 -44.5 132.125 C-45.1496875 131.65320313 -45.799375 131.18140625 -46.46875 130.6953125 C-50.01620049 126.76777803 -49.20744196 120.73315012 -49.16015625 115.734375 C-48.9502626 112.15082495 -48.30742407 109.34119484 -47 106 C-46.01 105.505 -46.01 105.505 -45 105 C-44.34444881 102.47266765 -44.34444881 102.47266765 -44 100 C-43.34 100 -42.68 100 -42 100 C-41.87367188 99.27683594 -41.74734375 98.55367187 -41.6171875 97.80859375 C-40.15700376 91.16383356 -37.02564856 85.05129711 -34 79 C-33.649375 77.948125 -33.29875 76.89625 -32.9375 75.8125 C-32 73 -32 73 -30 70 C-29.61500109 68.34450469 -29.27206865 66.6777567 -29 65 C-28.34 65 -27.68 65 -27 65 C-25.19695845 59.69905784 -23.49276376 54.39691512 -22 49 C-21.34 49 -20.68 49 -20 49 C-19.87625 47.88625 -19.7525 46.7725 -19.625 45.625 C-19 42 -19 42 -17 40 C-16.35232207 37.42938689 -16.35232207 37.42938689 -16 35 C-15.34 35 -14.68 35 -14 35 C-13.82984375 34.46632813 -13.6596875 33.93265625 -13.484375 33.3828125 C-9.76052522 21.9339552 -4.85876244 11.00045654 0 0 Z " fill="#0A6DD3" transform="translate(340,535)"/>
<path d="M0 0 C20.71543657 -0.07028942 41.43085328 -0.12308539 62.14638519 -0.15543652 C71.7664134 -0.17086143 81.38636722 -0.1918666 91.00634766 -0.22631836 C99.39765842 -0.25635542 107.78891527 -0.27560675 116.1802783 -0.28226548 C120.617512 -0.28615367 125.05459155 -0.29519859 129.49177551 -0.31719017 C133.68112178 -0.33778222 137.87025262 -0.34378871 142.0596447 -0.33932304 C143.58486546 -0.34013822 145.11009458 -0.34596708 146.63527107 -0.35761642 C160.61180864 -0.45899645 179.95144998 -0.21538589 190.82421875 9.65625 C191.21222656 10.0996875 191.60023438 10.543125 192 11 C188.52825971 10.19406029 185.31390458 9.01324398 182 7.71875 C178.3346889 6.40152882 174.56516666 5.69049342 170.75 4.9375 C169.85796875 4.76089844 168.9659375 4.58429688 168.046875 4.40234375 C167.03367187 4.20318359 167.03367187 4.20318359 166 4 C166 3.34 166 2.68 166 2 C164.845 2.165 163.69 2.33 162.5 2.5 C152.24293329 3.63070027 141.78597369 3.29372542 131.55078125 2.12109375 C128.85205041 1.99297636 126.63274121 2.44734193 124 3 C122.96875 2.835 121.9375 2.67 120.875 2.5 C116.62639712 1.95179318 112.9332287 2.29370421 108.6953125 2.73828125 C103.41692069 3.25082075 98.32830247 3.06129506 93.0625 2.4375 C89.04182601 1.99754783 85.5056231 2.18243956 81.515625 2.7421875 C76.36572531 3.26997225 71.17072141 3.07192657 66 3 C66 2.34 66 1.68 66 1 C64.24816406 1.24556641 64.24816406 1.24556641 62.4609375 1.49609375 C55.53238974 2.26548008 48.58597776 2.10657788 41.625 2.0625 C40.24609539 2.05747224 38.86718898 2.0529116 37.48828125 2.04882812 C33.99215089 2.03672481 30.4960986 2.01879623 27 2 C26.01 2 25.02 2 24 2 C16.33333333 2 8.66666667 2 1 2 C0.67 1.34 0.34 0.68 0 0 Z " fill="#03C9D8" transform="translate(516,254)"/>
<path d="M0 0 C35.31 0 70.62 0 107 0 C106.34 0.99 105.68 1.98 105 3 C100.2596527 3 95.56627043 2.63973327 90.84375 2.26757812 C87.31616587 2.02077886 84.39225622 2.02530194 81 3 C78.66508361 2.67794257 76.33157492 2.34541851 74 2 C73.34 2.33 72.68 2.66 72 3 C69.71003214 3.09756755 67.41704047 3.12976516 65.125 3.125 C63.89007813 3.12757813 62.65515625 3.13015625 61.3828125 3.1328125 C58 3 58 3 56.12103271 2.49879456 C53.58359133 1.90207488 51.28769787 1.88026739 48.68066406 1.88647461 C47.08946747 1.88658791 47.08946747 1.88658791 45.46612549 1.88670349 C44.32746033 1.89186478 43.18879517 1.89702606 42.015625 1.90234375 C40.84489441 1.9037587 39.67416382 1.90517365 38.46795654 1.90663147 C34.72861171 1.9122291 30.98932674 1.9247812 27.25 1.9375 C24.71484461 1.9425153 22.17968829 1.94707816 19.64453125 1.95117188 C13.42966707 1.96219776 7.21483781 1.97893356 1 2 C0.67 1.34 0.34 0.68 0 0 Z " fill="#01B9D7" transform="translate(400,254)"/>
<path d="M0 0 C0.69323364 -0.00043808 1.38646729 -0.00087616 2.10070801 -0.00132751 C4.37887303 0.00075287 6.65629064 0.02404724 8.93432617 0.04760742 C10.51901345 0.05320607 12.10370593 0.0574749 13.68840027 0.06047058 C17.84942076 0.07189823 22.01012467 0.10134725 26.17102051 0.13458252 C30.42085488 0.16532842 34.67074065 0.17898555 38.9206543 0.1940918 C47.25217942 0.22621918 55.58344773 0.27739007 63.91479492 0.34057617 C60.29089344 2.7565105 58.60166585 2.59657607 54.2878418 2.61181641 C53.61922623 2.61704315 52.95061066 2.6222699 52.26173401 2.62765503 C50.81144048 2.63788863 49.3611103 2.64367433 47.91078186 2.64553642 C45.61600563 2.64919791 43.32166242 2.66591696 41.02697754 2.68629456 C34.50349974 2.74173548 27.9799586 2.77242555 21.45629883 2.796875 C17.46509966 2.81273526 13.47420907 2.8429354 9.48316956 2.88163948 C7.96174897 2.89330092 6.44027325 2.89921993 4.91880798 2.8993206 C2.79279274 2.89951231 0.66763096 2.91775126 -1.45825195 2.93994141 C-3.27335266 2.94754738 -3.27335266 2.94754738 -5.12512207 2.95530701 C-8.06256253 3.09637042 -8.06256253 3.09637042 -9.93688965 4.69374084 C-11.59520781 7.07198716 -12.23442617 9.57554473 -13.08520508 12.34057617 C-14.88204311 16.99602018 -16.78559088 20.58584278 -20.08520508 24.34057617 C-19.38539957 19.64451288 -17.69007369 15.54886498 -15.83520508 11.21557617 C-15.54774414 10.50014648 -15.2602832 9.7847168 -14.96411133 9.04760742 C-14.66891602 8.35795898 -14.3737207 7.66831055 -14.06958008 6.95776367 C-13.67851074 6.02359619 -13.67851074 6.02359619 -13.27954102 5.07055664 C-9.96795377 0.27376448 -5.44233018 -0.02899998 0 0 Z " fill="#007FD4" transform="translate(388.085205078125,604.659423828125)"/>
<path d="M0 0 C3.04386724 -0.08226668 5.07175348 0.02391783 8 1 C8.33 1.66 8.66 2.32 9 3 C9.99 3.33 10.98 3.66 12 4 C15.99168856 10.75516525 16.08106677 16.50856203 15.83984375 24.16015625 C15.80402591 26.95061409 15.80402591 26.95061409 17.0234375 28.98828125 C18.40868466 31.84189041 18.00070713 33.99292868 17.6875 37.125 C17.52121094 38.83816406 17.52121094 38.83816406 17.3515625 40.5859375 C17.23554687 41.71257812 17.11953125 42.83921875 17 44 C16.92523437 45.00289063 16.85046875 46.00578125 16.7734375 47.0390625 C16.70382812 47.93367188 16.63421875 48.82828125 16.5625 49.75 C16.47162109 50.94882812 16.47162109 50.94882812 16.37890625 52.171875 C16.19134766 53.07679688 16.19134766 53.07679688 16 54 C15.01 54.495 15.01 54.495 14 55 C13.99589111 53.69853027 13.99178223 52.39706055 13.98754883 51.05615234 C13.96572897 46.21395609 13.91140909 41.3725691 13.84741211 36.53076172 C13.82425709 34.43774183 13.80984227 32.34460584 13.80444336 30.25146484 C13.79513572 27.23722184 13.75410471 24.22479869 13.70703125 21.2109375 C13.7109639 20.27945892 13.71489655 19.34798035 13.71894836 18.38827515 C13.62079552 13.98878326 13.42780177 10.94570373 10.59570312 7.453125 C8.30457121 5.28784157 6.54467079 3.88409221 3.6875 2.625 C2.99011719 2.30789063 2.29273438 1.99078125 1.57421875 1.6640625 C1.05472656 1.44492187 0.53523437 1.22578125 0 1 C0 0.67 0 0.34 0 0 Z " fill="#0FBFD8" transform="translate(645,340)"/>
<path d="M0 0 C0.66 0 1.32 0 2 0 C-0.53265614 8.25826807 -3.99598308 16.05791929 -7.5 23.9375 C-8.75918761 26.78007196 -10.01533481 29.62397249 -11.26953125 32.46875 C-11.58384598 33.18127426 -11.89816071 33.89379852 -12.22200012 34.62791443 C-14.29395877 39.34311911 -16.30096258 44.08131569 -18.26171875 48.84375 C-18.75800781 50.04394775 -19.25429688 51.24414551 -19.765625 52.48071289 C-20.6978299 54.74704001 -21.62133175 57.01697084 -22.53515625 59.29077148 C-23.15777344 60.80006226 -23.15777344 60.80006226 -23.79296875 62.33984375 C-24.1489917 63.22019287 -24.50501465 64.10054199 -24.87182617 65.00756836 C-26 67 -26 67 -29 68 C-29 67.01 -29 66.02 -29 65 C-28.34 65 -27.68 65 -27 65 C-25.19695845 59.69905784 -23.49276376 54.39691512 -22 49 C-21.34 49 -20.68 49 -20 49 C-19.87625 47.88625 -19.7525 46.7725 -19.625 45.625 C-19 42 -19 42 -17 40 C-16.35232207 37.42938689 -16.35232207 37.42938689 -16 35 C-15.34 35 -14.68 35 -14 35 C-13.82984375 34.46632813 -13.6596875 33.93265625 -13.484375 33.3828125 C-9.76052522 21.9339552 -4.85876244 11.00045654 0 0 Z " fill="#0A76D3" transform="translate(340,535)"/>
<path d="M0 0 C23.1 0 46.2 0 70 0 C70 0.33 70 0.66 70 1 C60.43873061 1.90240966 50.97481164 2.12397663 41.375 2.0625 C40.0143246 2.05746527 38.65364735 2.05290592 37.29296875 2.04882812 C34.82469779 2.04016318 32.35643251 2.02943095 29.88818359 2.01586914 C27.92547823 2.00508505 25.96273499 2 24 2 C16.33333333 2 8.66666667 2 1 2 C0.67 1.34 0.34 0.68 0 0 Z " fill="#03C1D7" transform="translate(516,254)"/>
<path d="M0 0 C12.41447738 10.13426725 23.10140401 24.56467918 25 41 C25.3004246 48.33228071 25.18924218 55.66613779 25 63 C22.42668952 58.40932556 22.88890027 54.11913768 23.078125 49.01953125 C23.17905895 44.55320413 22.63296887 41.14703606 21 37 C20.76539063 36.27296875 20.53078125 35.5459375 20.2890625 34.796875 C19.55112368 32.52228711 18.77592525 30.26189531 18 28 C17.74734375 27.20335937 17.4946875 26.40671875 17.234375 25.5859375 C14.24560076 17.02717491 8.66828569 10.55509875 2.21484375 4.30078125 C0 2 0 2 0 0 Z " fill="#0AC9D6" transform="translate(718,272)"/>
<path d="M0 0 C36.99291513 -1.08566164 36.99291513 -1.08566164 48.82421875 9.65625 C49.40623047 10.32140625 49.40623047 10.32140625 50 11 C46.52825971 10.19406029 43.31390458 9.01324398 40 7.71875 C36.3346889 6.40152882 32.56516666 5.69049342 28.75 4.9375 C27.85796875 4.76089844 26.9659375 4.58429688 26.046875 4.40234375 C25.37140625 4.26957031 24.6959375 4.13679688 24 4 C24 3.34 24 2.68 24 2 C22.845 2.165 21.69 2.33 20.5 2.5 C13.3614842 3.31353872 6.17265341 3.07920722 -1 3 C-0.67 2.01 -0.34 1.02 0 0 Z " fill="#0CCBD7" transform="translate(658,254)"/>
<path d="M0 0 C0.33 0 0.66 0 1 0 C1 29.7 1 59.4 1 90 C0.01 88.68 -0.98 87.36 -2 86 C-1.70033264 84.24884033 -1.70033264 84.24884033 -1 82 C-0.88254115 79.33182976 -0.81509419 76.68748361 -0.79467773 74.01855469 C-0.78477814 73.2181778 -0.77487854 72.4178009 -0.76467896 71.59317017 C-0.73314058 68.95276834 -0.70833687 66.31234853 -0.68359375 63.671875 C-0.6630176 61.83912697 -0.64202096 60.00638361 -0.62062073 58.17364502 C-0.56546829 53.35355418 -0.51602892 48.533421 -0.46777344 43.71325684 C-0.41750854 38.79317463 -0.36184852 33.87315379 -0.30664062 28.953125 C-0.19914257 19.30213578 -0.09767907 9.65109324 0 0 Z " fill="#0290D4" transform="translate(596,505)"/>
<path d="M0 0 C-4.34321803 4.34321803 -12.56569809 3.0464466 -18.42138672 3.06591797 C-21.61457022 3.0609651 -24.80700888 3.03565375 -28 3 C-28 2.34 -28 1.68 -28 1 C-31.96 1 -35.92 1 -40 1 C-40 0.67 -40 0.34 -40 0 C-34.78575406 -0.16763742 -29.57135652 -0.32819469 -24.35668945 -0.48217773 C-22.58254115 -0.53556608 -20.80845009 -0.59089298 -19.03442383 -0.64819336 C-16.48531435 -0.73019269 -13.93608072 -0.80523144 -11.38671875 -0.87890625 C-10.19594978 -0.91945885 -10.19594978 -0.91945885 -8.98112488 -0.96083069 C-5.69363284 -1.05004432 -3.14650219 -1.04883406 0 0 Z " fill="#18BFDB" transform="translate(654,406)"/>
<path d="M0 0 C0.99 0.33 1.98 0.66 3 1 C3 1.66 3 2.32 3 3 C-6.6074156 4.79009602 -16.01963461 5.44097457 -25.76953125 5.68798828 C-28.15687707 5.75083922 -30.54300785 5.8338074 -32.9296875 5.91796875 C-34.45569498 5.96213481 -35.98173639 6.00514757 -37.5078125 6.046875 C-38.21712921 6.07279724 -38.92644592 6.09871948 -39.65725708 6.12542725 C-43.37036432 6.2027659 -44.8163337 6.1224442 -48 4 C-47.10917725 3.98018066 -46.21835449 3.96036133 -45.30053711 3.93994141 C-41.91750424 3.86070117 -38.53481865 3.77399142 -35.15209961 3.68261719 C-33.70262741 3.6449063 -32.25307981 3.6099664 -30.8034668 3.578125 C-14.40195517 4.29135818 -14.40195517 4.29135818 0 0 Z " fill="#0E74D1" transform="translate(621,753)"/>
<path d="M0 0 C2.14675591 0.46001912 3.93030113 0.96282727 5.875 2 C8.5382649 3.25330113 11.09722329 3.60416681 14 4 C14 4.33 14 4.66 14 5 C15.65 5.33 17.3 5.66 19 6 C19.33 5.34 19.66 4.68 20 4 C20.33 4.99 20.66 5.98 21 7 C29.96705193 8.16239562 38.97536234 8.54244016 48 9 C48 9.33 48 9.66 48 10 C44.06264583 10.08840346 40.12555276 10.1408564 36.1875 10.1875 C35.08728516 10.21263672 33.98707031 10.23777344 32.85351562 10.26367188 C22.80371286 10.35260818 14.19770832 8.51643382 5.3125 3.8125 C4.29800781 3.28269531 3.28351563 2.75289062 2.23828125 2.20703125 C1.49964844 1.80871094 0.76101563 1.41039062 0 1 C0 0.67 0 0.34 0 0 Z " fill="#064ECC" transform="translate(277,748)"/>
<path d="M0 0 C1.28547548 3.85642645 0.44843216 4.86838666 -1.203125 8.515625 C-1.68910156 9.60230469 -2.17507813 10.68898438 -2.67578125 11.80859375 C-3.19527344 12.94425781 -3.71476562 14.07992188 -4.25 15.25 C-5.25531799 17.48432566 -6.26052918 19.71869939 -7.265625 21.953125 C-7.74064453 23.00048828 -8.21566406 24.04785156 -8.70507812 25.12695312 C-10.18057972 28.40065275 -11.60403273 31.69174879 -13 35 C-14.41687119 30.74938644 -13.19320039 28.28148375 -12 24 C-11.34 24 -10.68 24 -10 24 C-9.608125 22.741875 -9.21625 21.48375 -8.8125 20.1875 C-6.48940195 13.19608111 -3.32151442 6.56649624 0 0 Z " fill="#0A84D4" transform="translate(365,479)"/>
<path d="M0 0 C2.125 0.375 2.125 0.375 4 1 C3.401875 1.165 2.80375 1.33 2.1875 1.5 C-1.21528095 3.83333551 -1.74442932 7.19189552 -3 11 C-4.81631524 15.65924345 -6.69212614 19.23586767 -10 23 C-9.31749931 18.24119379 -7.4976396 14.16754942 -5.5625 9.8125 C-5.24990234 9.08869141 -4.93730469 8.36488281 -4.61523438 7.61914062 C-2.25502232 2.25502232 -2.25502232 2.25502232 0 0 Z " fill="#0870D1" transform="translate(378,606)"/>
<path d="M0 0 C1 2 1 2 -0.07421875 5.23046875 C-0.60392544 6.55273407 -1.14208418 7.87163666 -1.6875 9.1875 C-2.07325195 10.15913086 -2.07325195 10.15913086 -2.46679688 11.15039062 C-4.30423291 15.66949006 -6.50479527 19.8087084 -9 24 C-10.20967353 20.37097941 -9.71782588 19.73911377 -8.1640625 16.3671875 C-7.75929688 15.47902344 -7.35453125 14.59085938 -6.9375 13.67578125 C-6.504375 12.75152344 -6.07125 11.82726562 -5.625 10.875 C-5.19960938 9.94300781 -4.77421875 9.01101563 -4.3359375 8.05078125 C-1.17181183 1.17181183 -1.17181183 1.17181183 0 0 Z " fill="#076CD2" transform="translate(367,630)"/>
<path d="M0 0 C0.66 0.33 1.32 0.66 2 1 C-2.55692499 6.19774257 -6.26125335 9.20300089 -13 11 C-13.99 10.67 -14.98 10.34 -16 10 C-15.01257813 9.44570313 -14.02515625 8.89140625 -13.0078125 8.3203125 C-11.71344465 7.58871328 -10.41917913 6.85693301 -9.125 6.125 C-8.47402344 5.76019531 -7.82304687 5.39539063 -7.15234375 5.01953125 C-4.49606646 3.51339464 -2.16980999 2.16980999 0 0 Z " fill="#0A80D4" transform="translate(469,594)"/>
<path d="M0 0 C6.27 0 12.54 0 19 0 C19 0.33 19 0.66 19 1 C14.545 1.495 14.545 1.495 10 2 C10 2.33 10 2.66 10 3 C6.37 3 2.74 3 -1 3 C-0.67 2.01 -0.34 1.02 0 0 Z " fill="#35D6DF" transform="translate(658,254)"/>
<path d="M0 0 C1.19868356 4.0186082 0.64024677 6.09465055 -1 10 C-3 13.375 -3 13.375 -5 16 C-5.66 16 -6.32 16 -7 16 C-5.56835889 12.34061828 -4.01065704 8.76011932 -2.375 5.1875 C-1.92898438 4.21167969 -1.48296875 3.23585938 -1.0234375 2.23046875 C-0.51683594 1.12638672 -0.51683594 1.12638672 0 0 Z " fill="#0A86D5" transform="translate(478,577)"/>
<path d="M0 0 C3.04386724 -0.08226668 5.07175348 0.02391783 8 1 C8.33 1.66 8.66 2.32 9 3 C9.99 3.33 10.98 3.66 12 4 C13.1875 6.5625 13.1875 6.5625 14 9 C13.01 9.495 13.01 9.495 12 10 C11.505 9.2575 11.01 8.515 10.5 7.75 C7.40124842 4.34137326 4.17233866 2.81273937 0 1 C0 0.67 0 0.34 0 0 Z " fill="#13C1D8" transform="translate(645,340)"/>
<path d="M0 0 C-0.33 0.99 -0.66 1.98 -1 3 C-5.455 3.495 -5.455 3.495 -10 4 C-10.33 3.34 -10.66 2.68 -11 2 C-9.54494642 1.47007308 -8.08581873 0.9513211 -6.625 0.4375 C-5.81289063 0.14746094 -5.00078125 -0.14257812 -4.1640625 -0.44140625 C-2 -1 -2 -1 0 0 Z " fill="#0DB1D8" transform="translate(348,260)"/>
<path d="M0 0 C1.32 0.66 2.64 1.32 4 2 C4 2.66 4 3.32 4 4 C5.32 4 6.64 4 8 4 C8 4.99 8 5.98 8 7 C8.66 7.33 9.32 7.66 10 8 C6.39426104 8 5.58663434 7.18292538 2.8125 5 C2.09707031 4.443125 1.38164062 3.88625 0.64453125 3.3125 C0.10183594 2.879375 -0.44085938 2.44625 -1 2 C-0.67 1.34 -0.34 0.68 0 0 Z " fill="#0E5ED0" transform="translate(268,740)"/>
<path d="M0 0 C0.66 0.33 1.32 0.66 2 1 C1.38125 1.845625 0.7625 2.69125 0.125 3.5625 C-2.13047736 6.91372345 -3.06125645 10.08856854 -4 14 C-4.66 13.67 -5.32 13.34 -6 13 C-4.78482894 8.23279044 -3.57930022 3.57930022 0 0 Z " fill="#08B7D6" transform="translate(600,343)"/>
<path d="M0 0 C0.556875 0.226875 1.11375 0.45375 1.6875 0.6875 C-3.9375 4.6875 -3.9375 4.6875 -7.3125 4.6875 C-7.3125 4.0275 -7.3125 3.3675 -7.3125 2.6875 C-3.15982824 -0.42700382 -3.15982824 -0.42700382 0 0 Z " fill="#09A9D8" transform="translate(313.3125,274.3125)"/>
<path d="M0 0 C0.99 0.33 1.98 0.66 3 1 C1.68 4.3 0.36 7.6 -1 11 C-2.41687119 6.74938644 -1.19320039 4.28148375 0 0 Z " fill="#148BD7" transform="translate(353,503)"/>
<path d="M0 0 C0.66 0 1.32 0 2 0 C5.22265625 5.17578125 5.22265625 5.17578125 6 7 C5.67 7.99 5.34 8.98 5 10 C2.90217213 7.90217213 2.3490604 6.6200793 1.375 3.875 C1.11460937 3.15054687 0.85421875 2.42609375 0.5859375 1.6796875 C0.39257812 1.12539063 0.19921875 0.57109375 0 0 Z " fill="#0BABD6" transform="translate(493,364)"/>
<path d="M0 0 C1.98 0.99 1.98 0.99 4 2 C4 2.66 4 3.32 4 4 C4.66 4 5.32 4 6 4 C6.66 5.32 7.32 6.64 8 8 C5.04987143 6.63029745 2.4347778 5.17390875 0 3 C0 2.01 0 1.02 0 0 Z " fill="#05AED7" transform="translate(477,342)"/>
<path d="M0 0 C2.31 0 4.62 0 7 0 C7 0.99 7 1.98 7 3 C4.69 2.67 2.38 2.34 0 2 C0 1.34 0 0.68 0 0 Z " fill="#07AFD6" transform="translate(460,337)"/>
</svg>
